<?xml version="1.0" encoding="UTF-8"?>
<svg id="Capa_2" data-name="Capa 2" xmlns="http://www.w3.org/2000/svg" viewBox="0 0 876.42 658.72">
  <defs>
    <style>
      .cls-1 {
        fill: #070b12;
      }

      .cls-1, .cls-2, .cls-3, .cls-4, .cls-5, .cls-6, .cls-7, .cls-8, .cls-9, .cls-10, .cls-11, .cls-12, .cls-13, .cls-14 {
        stroke-width: 0px;
      }

      .cls-2 {
        fill: #cb8f2c;
      }

      .cls-3 {
        fill: #e1bb97;
      }

      .cls-4 {
        fill: #7e5656;
      }

      .cls-5 {
        fill: #f8bb50;
      }

      .cls-6 {
        fill: #43282f;
      }

      .cls-7 {
        fill: #c78d2d;
      }

      .cls-8 {
        fill: #7d5656;
      }

      .cls-9 {
        fill: #c98f2d;
      }

      .cls-10 {
        fill: #fafafa;
      }

      .cls-11 {
        fill: #f7eabf;
      }

      .cls-12 {
        fill: #080c12;
      }

      .cls-13 {
        fill: #12587a;
      }

      .cls-14 {
        fill: #070a11;
      }
    </style>
  </defs>
  <g id="Capa_1-2" data-name="Capa 1">
    <g>
      <path class="cls-1" d="m321,72.69c.97-.29,1.94-.57,2.92-.86,10.2-2.79,20.4-5.57,30.6-8.36,2.5,0,4.92-.46,7.27-1.28,12.08-1.64,24.16-3.27,36.24-4.91,2.18-.08,4.37-.17,6.55-.25,11.61-.27,23.22-.55,34.83-.82,1.18,0,2.37.02,3.55.03,3.8.02,7.59.03,11.39.05,1.72.06,3.44.12,5.16.18,3.67.69,7.38.62,11.09.48l4.03.22c10.31,1.06,20.63,2.11,30.94,3.17,1.46,1.24,3.21.92,4.9.94,11.69,2.7,23.38,5.41,35.08,8.11,1.62,1.16,3.49,1.59,5.42,1.85,8.9,3.48,17.8,6.97,26.7,10.45,3.73,1.85,7.47,3.71,11.2,5.56,1.72,1.56,3.79,2.51,5.9,3.37,2.09,1.26,4.18,2.52,6.27,3.78,6.71,5.02,13.72,9.64,20.04,15.18,6.89,6.03,6.95,5.97,13.96-.17,1.76-.3,2.9-1.58,4.19-2.63,10-5.26,20.4-9.54,31.3-12.59,1.4.08,2.74-.04,3.81-1.07,12.8-1.36,25.62-2.36,38.47-.55,17.92,3.29,34.54,9.67,49.13,20.8,16.21,12.38,28.74,27.68,36.28,46.75,3.4,8.59,10.93,13.68,16.5,20.39,22.89,27.62,42.78,56.95,54.36,91.27,4.22,12.51,7.2,25.41,7.35,38.55.35,29.38-11.46,53.55-33.49,72.79-8.07,7.04-16.93,12.95-26.7,17.37-2.63,1.19-3.51,2.83-3.83,5.66-2.24,19.64-14.23,24.58-29.59,22.92-8.7-.94-15.93-5.52-22.61-10.96-4.89-3.99-9.51-8.25-13.68-13.89-2.31,7.06-1.75,13.71-2.5,20.15-3.38,28.96-11.04,56.75-22.18,83.61-10.04,24.22-22.16,47.36-38.09,68.29-23.24,30.52-52.89,51.23-91.11,58.41-15.46,2.91-31.02,2.62-46.71,1.98-10.5-.43-21.2.76-30.83,6.27-14.69,8.42-30.84,12.05-47.45,14.3-11.09,1.5-22.3,1.57-33.36,1.49-26.25-.2-52.12-3.24-75.37-17.35-5.5-3.34-12.18-3.03-18.35-4.19-9.78-1.83-19.56.24-29.35.11-47.62-.64-86.18-20-115.16-57.24-33.57-43.13-53.51-92.43-62.23-146.34-1.54-9.5-2.06-19.08-3.14-29.22-6.35,5.4-11.26,11.72-17.76,16.31-6.65,4.7-13.68,8.23-22.01,8.48-16.39.49-24.54-6.19-26.59-22.47-.47-3.74-1.99-5.18-5.15-6.79-30.35-15.53-51.61-38.53-57.87-73.05-3.42-18.81.33-37.07,6.19-54.95,10.27-31.32,27.87-58.45,48.24-83.96,5.19-6.5,10.64-12.8,16.46-18.76,2.79-2.86,4.74-6.22,6.45-9.93,17.97-39.07,48-61.82,91.01-67.28,11.44-1.45,22.53.43,33.76,1.26,2.39.6,4.78,1.2,7.17,1.8,7.61,3.1,15.21,6.21,22.82,9.31,3.71,2.45,7.5,4.8,11.1,7.39,3.07,2.21,6.16,1.78,8.6-.38,10.96-9.68,23.32-17.31,35.71-24.91,3.03-1.46,6.06-2.91,9.09-4.37,7.69-3.16,15.38-6.33,23.08-9.49ZM74.88,234.31c-2.06-7.07-3.84-14.2-4.41-22.52-1.38,1.58-2.08,2.26-2.64,3.04-14.64,20.29-28.13,41.27-36.78,64.9-5.61,15.33-9.66,30.93-7.3,47.72,3.76,26.74,19.43,45.64,39.19,62.09,1.62,1.35,2.74,1.48,3.22-1.22.67-3.74,1.83-7.39,2.77-11.08,3.43-7.34,6.42-14.94,10.38-21.98,11.18-19.84,22.71-39.47,33.14-59.73,1.81-3.52,1.3-5.4-1.72-7.85-17.4-14.09-29.42-31.89-35.87-53.38Zm726.79,1.51c-7.8,21.35-19.78,39.77-38,53.73-1.9,1.46-1.26,2.52-.42,4.13,7.16,13.87,14.33,27.74,22.26,41.19,7.51,12.73,15.3,25.3,20.32,39.31,1.85,5.42,3.71,10.84,5.64,16.49,1.12-.7,2.16-1.22,3.05-1.92,12.02-9.47,22.17-20.67,29.4-34.15,8.64-16.1,11.64-33.18,8.15-51.49-3.63-19.08-11.39-36.42-20.62-53.2-6.48-11.79-13.89-23.06-21.85-33.94-.75-1.02-1.36-2.64-2.94-2.17-1.41.42-.71,2-.94,3.07-1.36,6.32-2.71,12.63-4.06,18.95ZM448.88,80.33c-2.48-.05-4.97-.1-7.45-.16-31.07-.76-61.86,1.47-92.08,9.17-29.2,7.44-56.35,19.07-79.58,38.81-3.04,2.58-3.48,4.3-.89,7.53,8.3,10.39,14.11,22.18,17.73,34.93,1.22,4.31,2.3,3.9,5.34,1.65,40.62-30.03,86.89-42.98,136.75-44.8,19.84-.73,39.56.88,59.18,3.74,1.45.37,2.88.8,4.35,1.09,33.86,6.82,65.2,19.46,93.02,40.24,1.01.75,1.78,2,3.5,1.8,3.02-10.54,7.31-20.56,12.83-30.14,2.59-4.51,9.31-8.37,7.36-13.26-1.79-4.46-7.75-7.48-12.25-10.6-44.51-30.82-94.96-39.86-147.79-40.01Zm-190.17,200.8l.05-.05c-.69.43-1.49.75-2.07,1.3-20.94,19.62-45.76,29.74-74.43,30.26-2.9.05-3.55,1.5-4.29,3.68-5.14,15.13-11.55,29.72-19.04,43.84-1.27,2.41-1.99,4.82-1.87,7.6,1.27,31.55,5.75,62.59,15.02,92.81,13.46,43.9,34.97,82.92,70.13,113.41,9.03,7.83,18.39,15.29,29.28,20.52.27.56.64.59,1.09.21-.22-.18-.44-.35-.66-.53-5.25-12.96-9.85-26.11-12.07-39.98-.09-1.99-.15-3.99-.29-5.98-1.83-26.64,7.99-47.39,31.08-61.39,3.69-2.24,7.43-4.43,11.28-6.37,19.69-9.92,35-24.52,46.94-42.94,8.14-12.56,16.62-24.91,25.12-37.24,5.11-7.41,10.72-14.46,17.21-20.71,29.85-28.7,70.19-27,97.89,3.9,14.86,16.57,26.16,35.66,38.6,53.94,6.1,8.97,12.64,17.51,20.61,24.96,9.85,9.2,21.55,15.51,33.23,21.89,10.06,5.5,18.88,12.35,25.37,22.03,11.37,16.95,11.94,35.47,8.45,54.68-2.09,11.51-6.53,22.25-10.67,33.09-.43.12-.82.33-.48.81.08.1.67-.17,1.02-.27,1.61-.84,3.29-1.57,4.83-2.54,28.12-17.73,50.45-41.16,67.33-69.66,28.39-47.95,40.14-100.48,41.93-155.65.07-2.03-.3-3.88-1.28-5.74-7.66-14.56-14.43-29.52-19.54-45.18-.84-2.57-2.15-3.14-4.65-3.15-6.32-.04-12.61-.67-18.83-1.87-51.53-9.98-87.45-54.35-89.32-102.52-.14-3.57-1.51-6.03-4.24-8.4-28.54-24.82-62.02-38.69-98.92-45.12-31.28-5.64-62.57-5.31-93.68.83-32.89,6.5-63.12,19.17-89.4,40.52-5.54,4.5-10.1,8.98-8.73,16.85.16.94-.26,1.97-.36,2.96-1.17,11.68-5.13,22.58-9.29,33.43-.22.19-.31.43-.26.72-.64.18-.83.62-.74,1.24-4.43,7.48-8.92,14.92-14.41,21.72-1.92,2.37-5.01,3.75-5.89,6.97-.35.39-.7.77-1.06,1.16Zm166.43,289.63c8.15-1.96,16.32-1.95,24.5-.19.84,1.43,1.95,2.76,2.48,4.29,2.98,8.71,9.19,15,15.86,20.79,4.37,3.8,9.34,7.32,15.43,7.46,5.91.14,11.59.76,16.95,3.36,1.11.54,2.15.63,3.36.31,7.33-1.94,14.83-1.73,22.3-1.55,5.19.12,10.37-.29,15.33-1.5,20.92-5.12,35.03-23.61,35.61-45.1.41-15.36-2.71-29.98-6.98-44.56-5.1-17.44-14.01-31.42-30.44-40.7-15.09-8.53-26.73-21.19-36.45-35.6-5.66-8.4-11.09-17.23-19.07-23.56-7.13-5.65-13.49-11.45-19.16-18.84-7.67-9.99-19.98-11.58-32.18-10.1-12.29,1.49-22.22,6.64-26.95,19-.54,1.42-1.13,2.6-2.85,3.14-7.88,2.5-12.85,8.72-17.87,14.69-8.03,9.53-14.1,20.55-22.41,29.89-9.6,10.8-21.29,19.02-33.23,26.93-6.3,4.18-12.18,8.92-15.29,16.03-9.4,21.53-16.24,43.71-14.14,67.6,1.97,22.36,15.95,37.43,36.63,41.08,14.76,2.6,30.33,4.81,45.48.43,5.01-1.45,10.37.18,15.21-2.16,6.84-3.29,12.56-7.9,17.64-13.57,4.67-5.22,6.77-11.75,10.23-17.57Zm190.2-371.68c-1.49,42.79,31.16,81.68,77.64,83.58,42.93,1.76,81.35-31.16,83.46-77.21,1.94-42.43-30.3-81.7-77.33-83.82-43.8-1.97-81.59,31.91-83.77,77.45Zm-354.27,3.09c0-44.34-35.95-80.54-80.16-80.74-44.18-.19-80.79,36.3-80.92,80.67-.13,44.16,36.62,80.82,80.86,80.67,44.3-.15,80.23-36.25,80.23-80.61Zm526.25,210.28c5.89.07,7.89-1.66,8.3-7.46.12-1.64-.07-3.32-.3-4.96-1.92-13.7-6.67-26.52-13.62-38.3-11.33-19.21-22.43-38.53-32.42-58.47-1.44-2.88-2.76-2.91-5.35-1.57-7.86,4.08-16.21,6.94-24.93,8.52-3.75.68-4.51,1.94-3.1,5.6,6.3,16.33,13.75,32.11,22.5,47.26,8.17,14.15,16.91,27.94,28.95,39.21,5.62,5.26,11.68,9.98,19.96,10.17Zm-706.35-11.31c-.12,9.74,2.08,11.92,10.13,11.14,7.74-.75,13.61-5.31,18.71-10.61,24.02-24.94,38.59-55.47,51.25-87.13,1.34-3.35-.65-3.66-2.82-4.1-8.86-1.76-17.38-4.6-25.43-8.61-3.34-1.66-4.44-.63-5.89,2.24-4.27,8.46-8.97,16.7-13.26,25.15-7.09,13.95-16.57,26.54-23.06,40.81-4.76,10.47-8.64,21.23-9.62,31.1Z"/>
      <path class="cls-9" d="m730.69,75.94c-5.87-.53-12.14-1.03-18.32-2.5-4.05-.96-4.26-2.84-2.69-6.06,2.75-5.62,7.23-9.5,12.5-12.5,13.26-7.57,27.54-10.43,42.68-8.45,4.22.55,9.74,1.09,11.17,5.18,1.21,3.47-3.41,6.37-6.04,9-10.72,10.7-24.16,14.71-39.3,15.33Z"/>
      <path class="cls-9" d="m183.99,75.94c-17.56-.7-32.43-6.09-43.48-19.77-3.63-4.5-3.47-6.12,2.07-7.7,20.78-5.94,39.7-1.78,56.62,11.54,2.36,1.85,4.1,4.31,5.54,7,1.93,3.63,1.62,5.57-3.01,6.55-6.05,1.28-12.14,1.81-17.74,2.37Z"/>
      <path class="cls-7" d="m470.59,56.95c-3.71.14-7.42.21-11.09-.48,18.56-12.83,29.5-30.35,32.42-52.77.76-5.81,4.78-3.03,7.65-3.02,3.37,0,4.66,1.73,4.04,5.2-2.48,13.95-8.29,26.26-17.64,36.91-1.38,1.57-3.3,2.8-3.54,5.18,1.75.91,2.97-.33,4.2-.98,8.54-4.5,17.65-4.47,26.82-3.29,5,.64,5.15,1.56,2.6,6.13-2.53,4.52-6.65,7.36-10.48,10.53-10.32-1.05-20.63-2.11-30.94-3.16-.04-1.17,1.88-1.97.64-3.41-1.98.46-3.32,1.82-4.66,3.19Zm7.46-4.44c.33-.34.66-.68.99-1.02.4-.27.79-.55,1.19-.82.57-.43,1.89-.67,1.04-1.64-.7-.8-1.37.29-1.97.74-.33.33-.65.66-.97.99-.38.34-.76.69-1.13,1.04-.17.37-.59.96-.48,1.08.59.66.98.11,1.34-.37Z"/>
      <path class="cls-9" d="m683.06,44.35c-1.72,10.31-7.87,18.2-15.89,24.82-8.66,7.15-18.77,11.18-29.72,13.33-3.42.67-4.44,0-3.94-3.72,2.29-17.09,16.73-31.91,35.99-36.41,3.39-.79,6.87-1.24,10.32-1.67,2.34-.29,4.04.41,3.24,3.65Z"/>
      <path class="cls-9" d="m281.01,78.55c0,2.58.38,4.74-2.66,4.15-19.69-3.83-36.01-12.5-44.84-31.65-1.35-2.94-3.52-6.64-1.63-9.34,2-2.85,6.03-.76,8.9-.18,19.01,3.82,33.45,13.34,39.38,32.9.48,1.57.67,3.24.85,4.14Z"/>
      <path class="cls-9" d="m594.75,90.61c-2.12-.86-4.18-1.81-5.9-3.37,4.1-23.16,20.83-32.49,41.3-37.68,1.11-.28,2.31-.28,3.46-.35,5.38-.3,5.99.38,4.61,5.49-3.6,13.44-12.89,22.11-24.42,28.82-5.93,3.45-12.42,5.49-19.06,7.08Z"/>
      <path class="cls-9" d="m210.59,95.13c-2.39-.6-4.79-1.2-7.17-1.8-2.72-1.2-5.48-2.33-8.16-3.62-4.24-2.04-4.39-3.13-.81-6.34,6.93-6.21,15.37-9.1,24.32-10.71,10.71-1.92,21.21-1.44,31.15,3.51,4.84,2.41,5.15,4.08,1.86,8.4-3.35,4.4-7.8,7.11-13.05,8.7-9.24,2.79-18.66,2.75-28.14,1.85Z"/>
      <path class="cls-7" d="m454.34,56.28c-3.8-.02-7.59-.03-11.39-.05-.74-1.04-1.7-1.97-2.99-1.87-1.07.08-.63,1.14-.56,1.85-11.61.27-23.22.55-34.83.82-2.54-2.41-4.72-5.1-6.59-8.08-1.88-2.99-1.19-4.63,2.24-5.13,9.35-1.36,18.55-1.32,27.31,2.9,1.19.57,2.4,1.09,3.63,1.57.24.09.6-.14.96-.23.45-1.84-1.14-2.57-2.06-3.58-9.74-10.69-16.16-23.05-18.86-37.31-.65-3.45-.82-6.16,3.95-6.65,4.01-.41,7.02-1.45,7.83,4.62,2.66,20.02,12.15,36.31,28.42,48.5,1.05.79,1.96,1.76,2.94,2.65Zm-18.86-4.62c.39.27.79.54,1.18.82.46.59,1.02,1.72,1.74.97.83-.87-.48-1.22-1.03-1.68-.32-.33-.63-.66-.95-.99-.4-.29-.8-.58-1.19-.88-.54-.53-1.14-1.68-1.87-.86-.84.94.48,1.22,1.07,1.66.35.32.7.64,1.05.96Z"/>
      <path class="cls-9" d="m725.35,27.3c5.83-.16,6.37.52,4.31,5.79-7.98,20.47-23.48,31.17-44.76,34.16-5.19.73-5.52.14-4.21-4.9,5.19-20.02,23.64-34.49,44.67-35.06Z"/>
      <path class="cls-9" d="m189.92,27.35c21,.91,39.27,15.75,44.24,35.63.95,3.8.01,4.62-3.68,4.41-20.21-1.14-39.65-16.01-45.95-35.39-1.44-4.41-.84-4.92,5.39-4.65Z"/>
      <path class="cls-7" d="m712.79,92.56c-12.85-1.81-25.67-.81-38.47.55-4.64-2.27-9.01-4.85-12.08-9.24-2.12-3.05-2.08-5.24,1.42-7.27,15-8.69,44.11-5.11,56.67,6.91,3.21,3.08,2.72,4.79-1.16,6.3-2.16.84-4.26,1.84-6.38,2.76Z"/>
      <path class="cls-9" d="m321,72.69c-7.69,3.16-15.38,6.33-23.08,9.49-9.48-6.97-18.14-14.57-21.33-26.61-1.62-6.15-1.17-7.11,4.98-6.23,16.29,2.33,29.92,9.43,39.43,23.35Z"/>
      <path class="cls-7" d="m577.65,81.69c-8.9-3.48-17.8-6.97-26.7-10.45,11.97-13.17,27.15-16.98,44.28-15.29,3.34.33,3.76,1.68,2.65,4.57-3.8,9.92-11.46,16.06-20.24,21.18Z"/>
      <path class="cls-7" d="m288.83,86.54c-12.39,7.6-24.75,15.23-35.71,24.91-2.45,2.16-5.53,2.59-8.6.38-3.61-2.6-7.39-4.94-11.1-7.39,14.4-18.58,33.77-21.76,55.42-17.89Z"/>
      <path class="cls-7" d="m670.51,94.19c-10.89,3.05-21.29,7.32-31.3,12.59-6.63-3.72-12.35-8.36-15.76-15.41-1.16-2.4-1.25-4.19,1.83-4.77,16-3.04,31.39-2.3,45.22,7.59Z"/>
      <path class="cls-7" d="m545.53,69.38c-11.69-2.7-23.38-5.41-35.08-8.11,13.01-10.3,27.69-12.56,43.57-9.06,3.02.66,3.15,2.19,1.93,4.69-2.46,5.04-6.23,8.92-10.42,12.48Z"/>
      <path class="cls-7" d="m354.51,63.47c-10.2,2.79-20.4,5.57-30.6,8.36-3-2.97-4.96-6.62-6.85-10.33-1.84-3.6-1.19-5.43,3.16-5.8,12.28-1.03,23.8,1,34.29,7.77Z"/>
      <path class="cls-7" d="m398.02,57.28c-12.08,1.64-24.16,3.27-36.24,4.91-5.97-9.41-5.86-9.75,5.36-11.07,10.93-1.29,21.35.31,30.88,6.17Z"/>
      <path class="cls-7" d="m635.02,109.4c-7.01,6.14-7.06,6.21-13.96.17-6.33-5.54-13.33-10.16-20.04-15.18,13.21.74,24.71,5.38,34,15Z"/>
      <path class="cls-11" d="m482.53,154.74c36.9,6.44,70.38,20.3,98.92,45.12,2.73,2.37,4.1,4.83,4.24,8.4,1.87,48.17,37.79,92.54,89.32,102.52,6.22,1.21,12.51,1.83,18.83,1.87,2.5.02,3.81.58,4.65,3.15,5.11,15.66,11.88,30.62,19.54,45.18.98,1.86,1.34,3.7,1.28,5.74-1.8,55.17-13.54,107.7-41.93,155.65-16.88,28.5-39.21,51.93-67.33,69.66-1.53.97-3.21,1.7-4.83,2.54-.18-.18-.36-.36-.54-.54,4.14-10.84,8.58-21.58,10.67-33.09,3.49-19.21,2.92-37.73-8.45-54.68-6.49-9.68-15.31-16.53-25.37-22.03-11.68-6.38-23.38-12.69-33.23-21.89-7.97-7.44-14.51-15.99-20.61-24.96-12.45-18.28-23.75-37.37-38.6-53.94-27.7-30.9-68.04-32.59-97.89-3.9-6.49,6.24-12.11,13.3-17.21,20.71-8.5,12.33-16.98,24.67-25.12,37.24-11.95,18.43-27.26,33.02-46.94,42.94-3.85,1.94-7.59,4.13-11.28,6.37-23.09,14.01-32.91,34.75-31.08,61.39.14,1.99.19,3.99.29,5.98-.6-.56-1.29-1.04-1.77-1.69-7.21-9.77-13.53-20.13-19.86-30.47-13.39-21.87-25.21-44.52-33.83-68.78-9.84-27.69-8.49-54.27,6-80.19,9.73-17.4,22.8-31.88,37.47-44.99,13.18-11.78,27.97-21.46,43.91-29.09,18.01-8.62,36.78-15.02,56.98-16.46-30.91-9.04-61.17-6.29-90.93,5.75-.52-2.87,1.71-4.82.96-7.21,0,0-.05.05-.05.05.66-.1,1.01-.5,1.06-1.16.89-3.21,3.98-4.6,5.89-6.97,5.5-6.8,9.98-14.23,14.41-21.72.25-.41.49-.83.73-1.24-.05-.29.04-.53.26-.72,2.28-.18,3.34-2.08,4.68-3.47,6.58-6.84,13.34-13.51,20.67-19.52,27.7-22.73,59.07-38.89,92.63-50.95,27.1-9.74,55.07-16.07,83.47-20.65Zm-181.36,184.6c-2.47.2-6.8.35-11.08.92-22.69,3.05-43.59,10.41-61.02,25.85-5.97,5.29-11.11,11.43-11.07,19.87.1,25.1,10.62,45.97,27.43,63.87,5.42,5.77,8.46,5.44,14.78.79,2.01-1.48,3.97-3.04,5.8-4.72,18.43-16.97,34.18-36.35,49.85-55.78,13.46-16.69,26.53-33.71,39.81-50.55,2.12-2.69-.13-3.97-1.71-5.17-2.25-1.71-4.31-1.33-5.72,1.38-3.79,7.26-4.19,7.27-12.46,6.78-10.96-.65-21.73-3.16-34.61-3.23Zm357.73,50.6c.65-10.43-4.49-18.07-11.9-24.25-23.18-19.34-50.24-27.25-80.1-25.91-9.28.42-18.51,2.06-27.78,2.87-4.95.44-9.91.38-10.72-6.5-.17-1.45-1.27-2.79-3.11-2.72-2.18.09-3.66,1.33-4.78,3.13-1.1,1.76-.03,2.66,1.19,3.73.98.87,1.74,2,2.54,3.06,16.13,21.4,32.53,42.6,49.83,63.07,12.99,15.38,25.72,31.05,41.58,43.69,6.85,5.46,10.03,5.53,15.97-.67,15.95-16.64,24.77-36.7,27.29-59.51Z"/>
      <path class="cls-4" d="m449.64,570.57c-8.18-1.75-16.35-1.76-24.5.19-7.74.86-15.03,2.27-18.96,10.4-1.26,2.61-3.99,4.37-6.73,5.78-17.07,8.75-35.17,12.61-54.04,8.95-21.68-4.2-36.79-14.96-35.24-41.77,1.62-27.98,8.45-54.18,32.21-73.2,15.4-12.33,28.48-27.41,44.01-39.74,7.84-6.22,15.33-12.93,26.22-12.78.41,10.67-.73,21.27-1.77,31.85-1.91,19.42-5.01,38.62-12.74,56.72-4.35,10.18-9.26,20.04-20.02,25.19-1.42.68-2.19,2.03-2.82,3.4-2.97,6.46,1.58,13.44,9.04,13.47,10.63.05,19.87-3.68,27.47-11.18,7.94-7.84,15.76-15.8,23.7-23.64,4.46-4.41,6.66-4.13,10.37,1.01,4.39,6.07,8.55,12.32,13.22,18.16,8.15,10.2,18.85,15.63,32.03,15.66,4.6.01,8.13-2.16,9.49-6.69,1.28-4.24.18-8.37-3.77-10.45-9-4.74-14.01-12.68-17.87-21.43-12.82-29.07-15.37-60.01-16.06-91.25,6.53-1.52,12.06.84,17.21,4.52,9.47,6.76,18.04,14.63,26.95,22.09,11.73,9.81,21.29,21.98,33.82,30.94,2.37,1.7,4.46,4.1,6.01,6.6,12.98,20.87,20.74,43.26,18.99,68.24-1.03,14.71-8.6,24.93-22.13,30.4-23.04,9.31-45.26,5.16-66.91-4.99-2.37-1.11-5.12-2.45-6.2-4.87-4.13-9.24-12.31-10.75-20.95-11.59Z"/>
      <path class="cls-5" d="m615.34,199.08c2.18-45.54,39.98-79.42,83.77-77.45,47.03,2.12,79.27,41.38,77.33,83.82-2.11,46.05-40.54,78.97-83.46,77.21-46.48-1.9-79.13-40.78-77.64-83.58Zm80.59-39.28c-24.38.02-43.69,19.44-43.59,43.81.11,23.99,19.62,43.46,43.58,43.48,24.02.02,43.86-19.94,43.71-43.97-.15-24-19.67-43.34-43.7-43.32Z"/>
      <path class="cls-5" d="m261.07,202.17c0,44.36-35.93,80.46-80.23,80.61-44.24.15-80.99-36.51-80.86-80.67.13-44.37,36.74-80.87,80.92-80.67,44.21.19,80.16,36.4,80.16,80.74Zm-36.99,1.14c0-24.47-19.28-43.66-43.75-43.57-23.9.09-43.51,19.83-43.4,43.69.11,23.96,19.6,43.51,43.51,43.66,24.22.15,43.64-19.33,43.64-43.78Z"/>
      <path class="cls-3" d="m258.76,281.08c.76,2.39-1.48,4.34-.96,7.21,29.76-12.04,60.01-14.8,90.93-5.75-20.2,1.45-38.97,7.84-56.98,16.46-15.94,7.63-30.73,17.31-43.91,29.09-14.66,13.1-27.74,27.59-37.47,44.99-14.5,25.92-15.84,52.51-6,80.19,8.62,24.26,20.44,46.9,33.83,68.78,6.33,10.34,12.65,20.7,19.86,30.47.48.65,1.18,1.13,1.77,1.69,2.22,13.87,6.82,27.02,12.07,39.98-.14.11-.29.22-.44.32-10.88-5.24-20.24-12.69-29.27-20.53-35.16-30.49-56.66-69.52-70.13-113.41-9.27-30.22-13.75-61.27-15.02-92.81-.11-2.78.6-5.19,1.87-7.6,7.48-14.12,13.89-28.71,19.04-43.84.74-2.18,1.39-3.63,4.29-3.68,28.67-.52,53.49-10.64,74.43-30.26.58-.55,1.38-.87,2.07-1.3Z"/>
      <path class="cls-2" d="m487.87,131.19c-19.63-2.86-39.34-4.47-59.18-3.74-49.86,1.82-96.13,14.77-136.75,44.8-3.04,2.25-4.12,2.66-5.34-1.65-3.62-12.75-9.43-24.54-17.73-34.93-2.58-3.23-2.15-4.95.89-7.53,23.24-19.74,50.38-31.37,79.58-38.81,30.23-7.7,61.01-9.93,92.08-9.17,2.48.06,4.97.11,7.45.16,10.92,2.64,21.9,5.09,32.75,7.99,8.97,2.4,17.83,5.25,26.15,9.54-5.51-.23-10.84-1.41-16.31-1.63-30.58-1.19-60.63,2.55-90.39,9.23-7.46,1.67-14.8,3.84-21.91,6.69-1.14.46-3,.76-2.78,2.38.26,1.95,2.2,1.67,3.64,1.69,2.83.05,5.69.21,8.49-.07,18.45-1.91,36.81-1.45,55.03,2.16,15.14,3,30.17,6.45,44.32,12.89Z"/>
      <path class="cls-5" d="m487.87,131.19c-14.15-6.44-29.18-9.89-44.32-12.89-18.22-3.61-36.58-4.06-55.03-2.16-2.8.29-5.66.12-8.49.07-1.44-.02-3.38.26-3.64-1.69-.21-1.62,1.64-1.92,2.78-2.38,7.11-2.85,14.45-5.02,21.91-6.69,29.76-6.68,59.82-10.42,90.39-9.23,5.47.21,10.79,1.4,16.31,1.63-8.32-4.29-17.18-7.14-26.15-9.54-10.85-2.91-21.83-5.35-32.75-7.99,52.84.15,103.28,9.19,147.79,40.01,4.5,3.11,10.46,6.13,12.25,10.6,1.96,4.89-4.76,8.75-7.36,13.26-5.52,9.58-9.81,19.6-12.83,30.14-1.72.2-2.5-1.05-3.5-1.8-27.82-20.78-59.16-33.42-93.02-40.24-1.46-.29-2.9-.72-4.35-1.09Z"/>
      <path class="cls-6" d="m449.64,570.57c8.65.84,16.82,2.36,20.95,11.59,1.08,2.42,3.83,3.76,6.2,4.87,21.65,10.15,43.87,14.3,66.91,4.99,13.53-5.47,21.1-15.69,22.13-30.4,1.75-24.98-6-47.37-18.99-68.24-1.55-2.49-3.64-4.9-6.01-6.6-12.53-8.96-22.08-21.13-33.82-30.94-8.91-7.45-17.48-15.32-26.95-22.09-5.15-3.68-10.68-6.04-17.21-4.52-.47-3.45-.34-6.9-.07-10.36.47-6.03.18-11.95-3.08-17.36-5.82-9.65-17.49-14.6-27.84-11.76-10.68,2.93-18.64,13.06-18.96,24.2-.14,4.82-.21,9.64-.31,14.46-10.89-.15-18.38,6.56-26.22,12.78-15.53,12.32-28.61,27.4-44.01,39.74-23.76,19.02-30.59,45.22-32.21,73.2-1.55,26.81,13.56,37.57,35.24,41.77,18.87,3.65,36.97-.21,54.04-8.95,2.74-1.4,5.47-3.16,6.73-5.78,3.93-8.13,11.22-9.55,18.96-10.4-3.46,5.82-5.56,12.36-10.23,17.58-5.08,5.68-10.81,10.28-17.64,13.57-4.84,2.33-10.2.71-15.21,2.16-15.15,4.38-30.72,2.17-45.48-.43-20.67-3.65-34.66-18.72-36.63-41.08-2.1-23.89,4.74-46.06,14.14-67.6,3.11-7.12,8.99-11.86,15.29-16.03,11.94-7.91,23.63-16.13,33.23-26.93,8.3-9.34,14.38-20.36,22.41-29.89,5.02-5.96,9.99-12.18,17.87-14.69,1.71-.54,2.3-1.72,2.85-3.14,4.73-12.36,14.66-17.51,26.95-19,12.2-1.48,24.52.11,32.18,10.1,5.67,7.39,12.03,13.19,19.16,18.84,7.98,6.33,13.41,15.16,19.07,23.56,9.72,14.41,21.36,27.07,36.45,35.6,16.43,9.28,25.34,23.26,30.44,40.7,4.26,14.59,7.39,29.2,6.98,44.56-.58,21.5-14.69,39.99-35.61,45.1-4.96,1.21-10.13,1.62-15.33,1.5-7.47-.17-14.97-.38-22.3,1.55-1.21.32-2.26.23-3.36-.31-5.35-2.6-11.04-3.22-16.95-3.36-6.09-.14-11.06-3.66-15.43-7.46-6.66-5.79-12.87-12.08-15.86-20.79-.53-1.53-1.64-2.87-2.48-4.29Z"/>
      <path class="cls-6" d="m801.67,235.81c1.35-6.32,2.7-12.63,4.06-18.95.23-1.07-.47-2.65.94-3.07,1.59-.47,2.2,1.15,2.94,2.17,7.96,10.88,15.36,22.14,21.85,33.94,9.23,16.78,16.99,34.12,20.62,53.2,3.48,18.31.49,35.39-8.15,51.49-7.23,13.47-17.38,24.68-29.4,34.15-.89.7-1.93,1.22-3.05,1.92-1.93-5.65-3.79-11.07-5.64-16.49,2.54-.29,2.3-2.62,2.8-4.17,4.45-13.97,6.52-28.39,7.02-42.96.73-21.1-1.8-41.98-6.15-62.6-2.04-9.67-3.71-19.5-7.83-28.63Z"/>
      <path class="cls-6" d="m68.94,377.26c-.95,3.69-2.1,7.34-2.77,11.08-.49,2.7-1.6,2.57-3.22,1.22-19.77-16.45-35.43-35.35-39.19-62.09-2.36-16.79,1.69-32.39,7.3-47.72,8.64-23.63,22.14-44.61,36.78-64.9.56-.78,1.26-1.46,2.64-3.04.57,8.31,2.35,15.45,4.41,22.51-1.89-.05-1.96,1.52-2.32,2.72-6.49,21.97-11.04,44.37-12.44,67.21-1.52,24.79-.02,49.39,8.82,73.01Z"/>
      <path class="cls-3" d="m482.53,154.74c-28.39,4.58-56.37,10.91-83.47,20.65-33.56,12.06-64.93,28.22-92.63,50.95-7.33,6.01-14.09,12.68-20.67,19.52-1.34,1.39-2.4,3.29-4.68,3.47,4.15-10.85,8.11-21.75,9.29-33.43.1-.99.52-2.02.36-2.96-1.37-7.88,3.19-12.35,8.73-16.85,26.28-21.35,56.51-34.02,89.4-40.52,31.11-6.14,62.4-6.47,93.68-.83Z"/>
      <path class="cls-8" d="m787.31,412.45c-8.27-.19-14.34-4.91-19.96-10.17-12.05-11.27-20.78-25.07-28.95-39.21-8.75-15.15-16.19-30.92-22.5-47.26-1.41-3.65-.65-4.92,3.1-5.6,8.71-1.58,17.06-4.45,24.93-8.52,2.59-1.34,3.9-1.32,5.35,1.57,9.99,19.94,21.08,39.26,32.42,58.47,6.96,11.79,11.71,24.61,13.62,38.3.23,1.64.41,3.32.3,4.96-.42,5.8-2.41,7.53-8.3,7.46Z"/>
      <path class="cls-8" d="m80.96,401.14c.99-9.87,4.86-20.63,9.62-31.1,6.49-14.27,15.97-26.86,23.06-40.81,4.29-8.45,8.99-16.69,13.26-25.15,1.45-2.87,2.55-3.9,5.89-2.24,8.05,4.01,16.58,6.85,25.43,8.61,2.18.43,4.16.74,2.82,4.1-12.65,31.66-27.23,62.19-51.25,87.13-5.1,5.3-10.97,9.86-18.71,10.61-8.05.78-10.26-1.4-10.13-11.14Z"/>
      <path class="cls-8" d="m68.94,377.26c-8.84-23.62-10.34-48.23-8.82-73.01,1.4-22.85,5.95-45.24,12.44-67.21.35-1.2.43-2.77,2.32-2.72,6.45,21.49,18.47,39.29,35.86,53.38,3.03,2.45,3.53,4.33,1.72,7.85-10.43,20.26-21.96,39.89-33.14,59.73-3.97,7.04-6.95,14.64-10.38,21.98Z"/>
      <path class="cls-8" d="m801.67,235.81c4.12,9.13,5.79,18.96,7.83,28.63,4.35,20.61,6.88,41.49,6.15,62.6-.5,14.58-2.57,29-7.02,42.96-.49,1.55-.25,3.88-2.8,4.17-5.02-14.01-12.82-26.58-20.32-39.31-7.93-13.45-15.09-27.32-22.26-41.19-.83-1.62-1.48-2.67.42-4.13,18.22-13.96,30.19-32.38,38-53.73Z"/>
      <path class="cls-13" d="m470.59,56.95c1.34-1.37,2.69-2.73,4.66-3.19,1.25,1.44-.68,2.24-.64,3.41-1.34-.07-2.69-.15-4.03-.22Z"/>
      <path class="cls-13" d="m439.4,56.21c-.07-.71-.5-1.77.56-1.85,1.29-.1,2.24.83,2.99,1.87-1.18,0-2.37-.02-3.55-.03Z"/>
      <path class="cls-3" d="m280.81,250.05c-.24.41-.49.83-.73,1.24-.1-.62.09-1.06.73-1.24Z"/>
      <path class="cls-3" d="m259.77,279.97c-.05.66-.39,1.06-1.06,1.16.35-.39.7-.77,1.06-1.16Z"/>
      <path class="cls-3" d="m271.91,594.18c.22.18.44.35.66.53-.45.37-.82.35-1.1-.21.14-.1.29-.21.43-.32Z"/>
      <path class="cls-11" d="m605.22,594.59c-.35.1-.94.38-1.02.27-.35-.48.04-.69.48-.81.18.18.36.36.54.54Z"/>
      <path class="cls-13" d="m479.29,49.76c.61-.45,1.28-1.54,1.98-.74.85.97-.47,1.21-1.04,1.64-.31-.3-.63-.6-.94-.9Z"/>
      <path class="cls-13" d="m478.32,50.76c.33-.33.65-.66.98-.99.31.3.62.6.94.9-.39.27-.79.55-1.18.82-.24-.24-.49-.49-.73-.73Z"/>
      <path class="cls-13" d="m479.05,51.48c-.33.34-.66.68-.99,1.02-.29-.24-.58-.47-.87-.71.38-.34.76-.69,1.13-1.04.24.24.48.48.72.73Z"/>
      <path class="cls-13" d="m478.06,52.5c-.36.48-.75,1.03-1.34.37-.11-.12.31-.71.48-1.08.28.24.57.47.86.71Z"/>
      <path class="cls-13" d="m434.43,50.71c-.59-.44-1.91-.72-1.07-1.66.73-.82,1.33.33,1.87.86-.27.27-.54.54-.8.8Z"/>
      <path class="cls-13" d="m437.38,51.76c.55.47,1.86.82,1.03,1.69-.72.75-1.28-.38-1.74-.97.24-.24.48-.48.72-.72Z"/>
      <path class="cls-13" d="m435.23,49.9c.4.29.8.58,1.19.88-.31.3-.63.59-.94.89-.35-.32-.7-.64-1.05-.96.27-.27.53-.53.8-.8Z"/>
      <path class="cls-13" d="m436.42,50.78c.32.33.63.66.95.98-.24.24-.48.48-.72.72-.39-.27-.79-.54-1.18-.82.31-.29.63-.59.94-.89Z"/>
      <path class="cls-12" d="m301.17,339.34c12.87.07,23.65,2.58,34.61,3.23,8.27.49,8.67.48,12.46-6.78,1.41-2.7,3.47-3.09,5.72-1.38,1.57,1.2,3.83,2.48,1.71,5.17-13.28,16.84-26.35,33.86-39.81,50.55-15.67,19.43-31.42,38.81-49.85,55.78-1.83,1.69-3.79,3.25-5.8,4.72-6.32,4.65-9.36,4.98-14.78-.79-16.81-17.9-27.32-38.77-27.43-63.87-.04-8.44,5.1-14.58,11.07-19.87,17.43-15.44,38.33-22.8,61.02-25.85,4.28-.57,8.61-.72,11.08-.92Zm-33.26,39.58c.11-7.72-6.08-14.12-13.7-14.15-7.41-.03-13.63,6.09-13.81,13.58-.19,7.7,6,14.02,13.74,14.04,7.54.02,13.66-5.97,13.77-13.47Z"/>
      <path class="cls-12" d="m658.9,389.94c-2.53,22.8-11.34,42.86-27.29,59.51-5.94,6.2-9.12,6.12-15.97.67-15.86-12.63-28.59-28.31-41.58-43.69-17.3-20.48-33.7-41.67-49.83-63.07-.8-1.06-1.55-2.2-2.54-3.06-1.21-1.06-2.28-1.96-1.19-3.73,1.12-1.8,2.6-3.04,4.78-3.13,1.83-.07,2.94,1.28,3.11,2.72.81,6.87,5.77,6.94,10.72,6.5,9.27-.82,18.5-2.46,27.78-2.87,29.86-1.34,56.92,6.57,80.1,25.91,7.41,6.18,12.55,13.82,11.9,24.25Zm-36.45-25.15c-7.34-.08-13.64,6.11-13.8,13.55-.16,7.77,5.95,14.05,13.69,14.06,7.53,0,13.69-5.97,13.88-13.44.18-7.56-6.16-14.09-13.77-14.17Z"/>
      <path class="cls-14" d="m412.6,428.4c.1-4.82.17-9.64.31-14.46.32-11.14,8.28-21.28,18.96-24.2,10.35-2.84,22.03,2.12,27.84,11.76,3.26,5.4,3.54,11.33,3.08,17.36-.27,3.47-.4,6.91.07,10.36.69,31.24,3.23,62.18,16.06,91.25,3.86,8.76,8.87,16.69,17.87,21.43,3.95,2.08,5.05,6.2,3.77,10.45-1.36,4.53-4.89,6.7-9.49,6.69-13.17-.03-23.88-5.46-32.03-15.66-4.67-5.84-8.84-12.09-13.22-18.16-3.71-5.14-5.91-5.41-10.37-1.01-7.94,7.84-15.76,15.8-23.7,23.64-7.6,7.5-16.84,11.22-27.47,11.18-7.46-.03-12.02-7.01-9.04-13.47.63-1.37,1.41-2.72,2.82-3.4,10.76-5.16,15.67-15.01,20.02-25.19,7.73-18.1,10.83-37.31,12.74-56.72,1.04-10.58,2.18-21.18,1.77-31.85Z"/>
      <path class="cls-12" d="m695.93,159.8c24.03-.02,43.55,19.32,43.7,43.32.15,24.03-19.69,43.99-43.71,43.97-23.96-.02-43.47-19.49-43.58-43.48-.11-24.37,19.2-43.78,43.59-43.81Zm-23.59,43.55c-.02,12.7,10.89,23.63,23.57,23.59,12.73-.04,23.62-10.88,23.67-23.57.05-12.6-10.95-23.58-23.64-23.59-12.7,0-23.58,10.85-23.6,23.57Z"/>
      <path class="cls-12" d="m224.07,203.31c0,24.44-19.42,43.93-43.64,43.78-23.91-.15-43.4-19.71-43.51-43.66-.11-23.85,19.5-43.59,43.4-43.69,24.47-.09,43.74,19.1,43.75,43.57Zm-20,.17c.05-12.93-10.5-23.64-23.33-23.69-12.78-.06-23.57,10.64-23.65,23.46-.08,12.76,10.64,23.63,23.42,23.74,12.73.11,23.52-10.65,23.56-23.5Z"/>
      <path class="cls-10" d="m267.9,378.92c-.11,7.51-6.23,13.49-13.77,13.47-7.74-.02-13.92-6.34-13.74-14.04.18-7.49,6.4-13.61,13.81-13.58,7.62.03,13.81,6.43,13.7,14.15Z"/>
      <path class="cls-10" d="m622.45,364.79c7.61.08,13.95,6.61,13.77,14.17-.18,7.47-6.35,13.45-13.88,13.44-7.74,0-13.85-6.28-13.69-14.06.15-7.44,6.45-13.63,13.8-13.55Z"/>
      <path class="cls-5" d="m672.34,203.35c.02-12.72,10.9-23.58,23.6-23.57,12.69,0,23.69,10.99,23.64,23.59-.05,12.69-10.95,23.53-23.67,23.57-12.67.04-23.59-10.89-23.57-23.59Z"/>
      <path class="cls-5" d="m204.07,203.48c-.05,12.85-10.83,23.6-23.56,23.5-12.78-.11-23.5-10.97-23.42-23.74.08-12.81,10.87-23.51,23.65-23.46,12.83.06,23.38,10.77,23.33,23.69Z"/>
    </g>
  </g>
</svg>